<svg id="Capa_1" enable-background="new 0 0 512 512" height="512" viewBox="0 0 512 512" width="512" xmlns="http://www.w3.org/2000/svg"><g><path d="m362 136.698h135v60h-135z" fill="#db686b"/><path d="m286.667 196.698h135v60h-135z" fill="#93db79"/><path d="m45 165.031h30v45h-30z" fill="#3d6c84"/><path d="m105 165.031h30v92h-30z" fill="#3d6c84"/><path d="m120 165.031h15v92h-15z" fill="#2e5167"/><path d="m210.161 170-90.161 10h-110.161l27-90c2.247-.27-15.999 1.92 83.321-10l83 10z" fill="#eec442"/><path d="m120 180h110.161l-54-180h-56.161z" fill="#e49b33"/><path d="m203.161 90-25.33-51.099-1.67-38.901h-112.322l-27 90z" fill="#f4dc57"/><path id="XMLID_633_" d="m0 241.906h512v90.25h-512z" fill="#7d4d3e"/><path id="XMLID_630_" d="m256 241.906h256v90.25h-256z" fill="#58332a"/><path id="XMLID_180_" d="m105.188 512h-45.188v-70.25h75.312z" fill="#8d5b4a"/><path id="XMLID_171_" d="m406.812 512h45.188v-70.25h-75.312z" fill="#7d4d3e"/><path id="XMLID_176_" d="m502 442.031-246 10h-256v-135.5h512z" fill="#b57a6a"/><path id="XMLID_173_" d="m256 316.531h256v135.5h-256z" fill="#8d5b4a"/><path d="m332 362.031h60v30h-60z" fill="#58332a"/><path d="m120 362.031h60v30h-60z" fill="#7d4d3e"/><path d="m120 90h83.161l-27-90h-56.161z" fill="#eec442"/></g></svg>